<svg enable-background="new 0 0 578.938 50.084" height="30.084" viewBox="0 0 578.938 50.084" width="578.938" xmlns="http://www.w3.org/2000/svg"><g fill="#fff"><path d="m464.721 15.3c-.744-5.214-1.583-11.125-6.377-13.918-1.07-.699-2.421-.746-3.725-.931-5.446-.373-11.451-.513-16.712.419-3.259 1.21-5.027 4.608-5.68 7.867-1.396 7.076-1.584 14.71-1.442 22.298.14 4.935.465 9.729 2.281 14.012 1.069 2.793 3.816 4.517 6.936 4.701 5.074-.093 10.056.278 14.896-.325 3.071-.792 4.328-3.119 5.633-5.818 3.305-8.661 4.796-18.25 4.19-28.305zm-9.171 20.11c-.884 3.397-3.305 5.819-6.702 6.702-2.7.933-6.19.933-8.473-.93-2.234-2.699-2.049-6.518-2.096-10.147.326-6.424 1.305-12.569 3.679-18.155 1.396-2.933 3.118-6.47 6.796-6.889 4.143 0 4.469 4.747 5.539 7.727 1.304 6.843 2.468 14.476 1.257 21.692z"/><path d="m577.7.451c1.489.837.978 2.979 1.117 4.608-.027 1.672.698 5.28-1.117 5.54-2.653.046-4.236-1.909-6.564-2.7-1.022-.326-2.001-1.07-3.258-.652-2.606 1.77-1.955 5.261-2.188 8.24.559 10.893 2.745 21.413 1.675 32.679-.155.84-.604 1.117-1.352 1.396-3.023.605-6.562.326-9.729.279-.743-.08-1.535-.419-1.582-1.257-.092-1.558.287-2.285.465-3.353 3.025-10.705 4.936-21.878 4.562-33.889-.232-1.536-.42-3.398-2.002-4.097-1.351-.279-2.468.513-3.632.932-2.049.745-3.559 2.306-6.145 2.281-.698-.232-.994-.906-1.07-1.536 0-2.7-.463-6.219.838-8.053.403-.569.932-.512.932-.512 9.497 0 18.667-.326 28.303-.093z"/><path d="m422.965.358c1.307.147 1.131 2.096 1.164 3.678-.373 14.29-2.049 28.675-.838 43.013.077 1.084.135 2.306-.979 2.515-2.606.231-5.68.418-8.146-.141-.56-.232-.865-.736-1.117-1.351-3.864-9.729-7.636-19.599-11.731-29.14-.266-.534-.418-.885-1.022-.932-.987-.068-1.133.543-1.257 1.071-2.188 8.612-1.862 18.853 1.023 26.999.187.933.744 2.375-.187 3.166-.513.56-1.005.496-1.956.513-4.548-.16-8.01 1.003-9.217-1.908-2.373-5.121-.791-11.592 1.258-16.293 3.723-8.333 8.564-18.759 3.631-28.07-.141-.698-.605-1.396-.188-2.094.42-.746 1.258-.885 2.002-1.024l8.52.093c1.256.139 1.77 1.396 2.327 2.327 2.747 7.634 5.866 15.083 8.983 22.531.363.77.604 1.583 1.584 1.257.961-.487.838-3.678.838-5.727.047-6.89-1.676-13.081-4.004-18.946-.139-.745.187-1.21.652-1.443 2.702-.281 5.82-.187 8.66-.094z"/><path d="m486.134 1.615c2.421 4.143 3.307 8.891 5.727 13.034.375.49.791.931 1.35.419 2.793-3.957 4.609-8.891 6.797-13.36.838-1.815 3.584-1.396 5.214-1.35.604.046 1.184.38 1.258 1.024-.048 5.539-.933 10.706-.839 16.292-.278 10.103.373 19.831.744 29.653-.092.979-.465 1.955-1.442 2.234-2.933.324-5.865.559-8.704-.141-.604-.372-.772-.679-.791-1.536 2.605-8.799 3.909-18.854 2.468-28.629-.034-.685-.15-1.296-.838-1.443-.746-.047-1.025.419-1.353.931-2.28 3.631-4.233 7.215-6.377 10.846-.429.531-.977.604-1.442.187-2.793-3.724-4.236-7.959-6.562-11.962-.188-.187-.452-.348-.746-.14-1.955 2.887-2.047 6.61-2.513 10.148-.419 6.796.419 13.499 2.327 19.597.305.975.188 1.498-.465 1.816-2.549.787-7.437.555-8.658.418-1.955-.512-3.054-2.831-3.307-4.422-2.421-14.804 13.547-24.393 7.075-39.476-.65-1.396-1.536-2.793-1.35-4.375.199-1.023 3.072-1.024 4.795-1.118 1.338.039 5.956-.836 7.632 1.353z"/><path d="m342.05.476c1.019.146 1.64.627 1.779 1.232.56 2.188.14 4.655-.327 6.704-.201.502-.287 1.142-1.021 1.21-2.059-.126-4.562-1.675-6.891-2.56-2.934-1.164-7.216-3.212-10.148-.466-.885.885-1.256 2.26-.838 3.491 2.653 4.935 8.101 6.052 12.336 8.845 4.517 2.653 8.24 7.124 8.008 12.941.418 6.937-2.7 13.034-8.239 16.387-.767.396-1.552.658-2.281.837-5.026 1.489-10.938.514-16.387.56-1.022-.093-2.261-.534-2.42-1.677-.187-2.933-.093-5.959.604-8.658.223-.527.838-.93 1.489-.838 5.493.651 9.729 4.842 15.548 4.143 2.328-.371 4.283-2.279 4.889-4.561.744-6.424-6.237-7.263-9.916-9.963-5.073-2.467-10.705-6.237-11.032-12.615-.325-5.726 2.606-10.94 6.981-13.454 4.425-2.752 15.452-1.5 17.866-1.558z"/><path d="m545.765 31.454c-1.675-7.216-5.353-13.593-7.122-20.762-.885-2.979-.512-6.331 0-9.31-.004-.674-.649-.885-1.256-.931-4.235-.466-8.846-.233-13.174-.187-3.815-.08-1.721 4.429-2.143 7.076-1.07 10.241-6.656 18.62-9.961 27.978-1.259 3.957-3.025 8.798-1.117 12.941 1.434 2.521 7.597 1.661 9.929 1.531.868-.133 1.289-.834 1.337-1.531-.839-5.074-2.234-10.521-1.07-15.828.229-.883.931-1.257 1.676-1.35 4.003-.326 8.238-.047 12.242.093.933.466 1.351 1.443 1.535 2.374.467 4.469-.371 8.564-1.629 12.43-.389.873-1.026 2.24-.885 3.117.094.467.505.727 1.225.812l8.646.028c.838-.094 1.676-.279 2.142-1.024 2.186-5.214.881-12.103-.375-17.457zm-11.638-11.266c-.884 1.769-3.023 1.032-4.979 1.164-1.305-.187-3.025.232-3.679-1.164-.372-2.001.419-3.957.886-5.819.65-1.675 1.257-3.77 3.025-4.608 1.521-.295 2.28.466 2.886 1.536 1.117 2.746 2.374 5.633 1.861 8.891z"/><path d="m375.67 12.88c-1.305-3.352-1.396-7.821-.561-11.405.08-.825-.387-1.098-.854-1.145l-1.102-.065c-4.422-.047-9.217-.326-13.36.279-.696.28-1.161.718-1.256 1.351 0 1.723.278 3.724.187 5.54-1.023 8.286-4.654 15.501-7.914 22.81-2.095 5.445-4.935 11.078-3.537 17.41 1.178 3.476 7.666 2.166 9.496 2.281 1.049-.115 1.776-.523 1.893-1.367.094-3.118-1.146-5.523-1.287-8.644 0-2.839-1.023-6.563 1.352-8.565.955-.596 8.472-.465 12.939-.186.791.325 1.107.811 1.257 1.862.558 5.213-.372 10.428-2.468 14.85-.139.56-.139 1.257.373 1.63 1.625.77 7.076.186 10.566.047 1.396-.56 1.676-2.281 2.002-3.679 1.351-12.289-4.001-22.484-7.726-33.004zm-6.145 8.146c-2.188.326-6.73.456-7.029-.187-1.592-1.453.038-4.653.513-6.471.604-1.675 1.21-3.724 2.933-4.608.838-.14 1.51-.091 2.096.605 1.908 2.56 2.561 5.772 2.699 9.124-.175.916-.467 1.351-1.212 1.537z"/><path d="m155.423.482c1.351.93.559 2.839.652 4.189-1.351 8.844-3.166 17.456-4.096 26.486-.28 5.4.418 10.568 1.024 15.688-.047.698.093 1.489-.419 2.002-.745.838-1.909.885-3.026.932-2.327-.141-5.493.535-6.982-.514-.512-.744-.217-1.938-.093-2.56 3.166-11.729 4.236-25.603 2.375-38.172-.28-2.466-1.356-5.104-.239-7.478.552-.668 1.192-.863 2.333-.995 2.84.142 5.912-.37 8.471.422z"/><path d="m235.166.389c.721.611.604 2.909.604 4.626.053.971-.087 3.898-1.21 4.312-.452.166-1.164-.093-1.164-.093-4.422-2.001-10.288-6.284-14.896-1.862-4.469 5.214-5.633 12.103-7.122 18.714-.792 4.097-1.351 8.611-.839 12.894.512 1.723 1.63 2.934 3.352 3.586 4.283.744 9.031-.142 11.498-3.771 2.141-3.443.745-8.1-.419-11.497-.558-2.095-1.909-3.958-1.77-6.238.194-.769 1.724-.792 2.793-.745 5.082-.023 6.866-.372 7.634.651 1.816 3.026.978 7.085.932 10.94-.559 5.307-.327 10.938-2.514 15.548-.606 1.163-1.908 2.095-3.305 2.188h-19.226c-2.188-.188-4.608-1.443-5.306-3.725-1.723-6.191-1.536-13.407-1.397-20.25.605-7.308.046-15.128 3.771-21.134 2.142-2.746 4.67-4.415 9.558-4.531 6.285.14 11.856-.124 18.093.156 0-.002.65-.009.933.231z"/><path d="m254.716.482c1.419.45.838 2.661.651 4.469-1.489 9.31-3.444 18.387-4.096 28.022-.047 4.935.651 9.543 1.164 14.197.046.792.005 1.602-.652 1.955-1.612.984-7.634.664-8.844.605-.652-.094-1.234-.379-1.35-.932.047-2.188 1.024-4.189 1.35-6.331 2.7-12.336 2.513-26.953.512-39.568-.093-.791.093-1.536.512-2.095.698-.605 1.205-.704 2.426-.739 2.886.05 5.628-.095 8.327.417z"/><path d="m38.489 1.924c.698 3.957-.14 7.868-.233 11.824-.697 11.032-1.769 22.996.559 33.61.105.541.233 1.442-.326 1.769-2.13 1.274-7.949.838-10.566.604-.652-.186-1.106-.61-1.257-1.116-.605-3.863 2.281-6.656 2.7-10.334.466-3.538 1.49-8.054-1.35-10.66-2.607-1.351-6.005-.886-9.077-1.117-3.073 0-6.471.279-7.821 3.306-1.769 4.795-.046 10.008 1.443 14.338.32.988 2.735 4.188.652 5.492-.613.383-6.332.232-9.217.141-2.42-.467-3.305-2.746-3.817-4.842-1.258-8.752 4.469-15.035 6.749-22.53 2.234-5.214 3.259-12.569.745-18.062-.419-1.071-1.024-2.467-.419-3.539.279-.418.681-.448 1.35-.558 3.166.046 8.728-.181 9.59.233 1.1.527.506 1.972 0 3.118-1.955 3.212-3.026 7.216-2.048 11.266.419.651.745 1.35 1.582 1.583 3.771.326 8.054.512 11.685-.187 1.071-.373 1.629-1.304 1.629-2.514.187-4.189-1.629-7.634-2.886-11.265-.174-.814-.046-1.676.699-2.001 2.514-.512 5.679-.512 8.239 0 .662.196 1.127.691 1.395 1.441z"/><path d="m72.843.359c.488.029 1.193.436 1.35 1.146.076 1.734.279 6.941-.652 7.959-1.442 1.118-3.258.28-4.701-.232-3.351-1.164-6.471-2.793-9.869-3.771-1.21-.278-2.374 0-3.352.652-1.721 1.489-2.094 3.864-1.769 6.051.56 2.095 1.769 3.445 3.865 4.097 2.699.838 5.632.605 8.425.188.651 0 1.35.186 1.676.838.512 2.886.081 8.007-.746 8.658-.837.559-1.908.141-2.885.141-3.538-.56-7.076.371-8.892 3.396-1.909 2.515-2.653 7.028-.838 9.963.978 1.813 2.653 3.119 4.608 3.397 5.167.187 8.798-3.352 13.639-3.957.512.048 1.025.232 1.304.65.698 1.305.14 2.934.187 4.377-.128 1.31.139 4.235-1.676 5.213-1.164.745-2.653.698-4.097.651l-20.436-.047c-1.442-.278-2.141-1.069-2.514-2.467-1.348-13.962 1.072-27.648.513-41.892-.023-1.567 0-4.004 2.001-4.703 1.351-.325 2.747-.465 4.189-.511z"/><path d="m175.86.482c1.908 1.814 2.048 4.562 3.072 6.796 2.281 6.238 4.469 12.476 7.262 18.48.232.279.605 1.024 1.163.839 1.025-.885.699-2.468.978-3.679.466-7.68-1.024-14.756-3.677-21.272-.171-.52-.015-.862.217-1.141l.62-.256c.777-.21 5.726-.14 8.472 0 1.164.418.932 2.001 1.118 3.072-.14 14.756-2.514 29.094-1.536 44.13.046.978-.233 1.813-1.07 2.188-2.561.186-5.54.371-8.007-.188-.326-.092-.745-.605-.978-.932-4.003-9.775-7.448-19.877-11.498-29.652-.326-.512-.776-1.296-1.443-.978-1.304 1.257-1.304 3.166-1.769 4.841-1.21 7.774-.885 16.571 1.676 23.602.139.932.465 2.001-.187 2.792-1.117.745-2.606.698-4.096.651-2.25.07-5.121.513-6.563-1.164-3.211-5.073-1.257-12.288.932-17.131 3.723-8.052 8.053-17.502 4.701-26.812-.512-1.164-1.537-2.84-.419-4.004.932-.697 2.328-.278 3.445-.511 2.419.096 5.259-.277 7.587.329z"/><path d="m293.958.482c1.31.837.513 6.377.513 9.496-.931 12.289-2.141 24.857-1.304 37.474-.053.941-.094 1.77-.978 2.095-2.328.418-5.027.231-7.495.187-.977 0-1.356-.988-1.675-1.629-3.958-9.916-7.682-19.972-11.825-29.747-.372-.279-.885-.745-1.35-.326-1.209 1.909-1.443 4.189-1.769 6.47-1.117 7.495-.419 15.455 2.002 22.11.232.652.326 1.724-.093 2.328-1.117 1.023-2.747.838-4.283.838-2.421-.231-5.726.791-6.936-1.676-2.793-5.68-.791-12.709 1.815-17.781 3.631-8.1 8.146-18.667 3.212-27.651-.14-.605-.14-1.49.326-1.862.698-.558 1.629-.651 2.607-.558 2.839.046 5.819-.233 8.472.233.978.279 1.164 1.35 1.629 2.094 2.188 6.331 4.562 12.615 7.029 18.806.698 1.816 1.664 4.726 2.606 5.214.652.233.931-.371 1.117-.838 1.165-8.379-.373-16.851-3.398-24.112-.117-.472-.029-1.083.373-1.257.529-.465 5.33-.174 7.959-.233.468.092 1.028.092 1.446.325z"/><path d="m97.195.447c.435.101 1.018.522.879 1.199-.838 3.724-2.421 7.075-3.445 10.706-2.374 7.728-5.843 16.315-6.238 23.601.046 2.421 1.024 4.796 2.933 5.959 2.281.696 4.422-.42 6.47-1.117 2.188-.745 4.19-1.955 6.471-2.421.419.047.844.128 1.193.623.978 2.934.282 7.398-.494 9.292-.327.933-1.165 1.481-2.281 1.489l-20.901-.047c-.792-.231-1.257-.559-1.443-1.116-.512-1.49-.047-3.46.092-4.517 1.63-13.358 1.165-27.558 2.328-41.104.14-1.444 1.21-2.142 2.421-2.607 1.047-.309 8.105-.313 12.015.06z"/><path d="m135.541.476c1.688.292 1.223 2.677.984 5.034-.14 1.668-.198 3.811-1.676 3.956-4.609-1.209-8.566-4.049-13.546-4.375-1.537.094-2.724.613-3.865 2.095-.527.652-.605 2.886.28 3.957 4.422 5.399 12.149 6.145 16.898 11.871 4.143 5.028 3.677 13.731.465 19.131-2.7 4.795-7.587 7.447-13.081 7.588-3.91.048-8.1.232-11.917-.186-1.023-.279-1.784-.707-1.954-1.583-.28-2.7.092-5.354.325-7.914.156-.907.845-1.344 1.351-1.489 4.422.141 7.773 2.793 11.871 3.679 2.839.698 6.144.419 7.96-2.095 1.071-1.258 1.49-3.26.931-4.981-1.629-4.097-6.517-5.026-9.822-7.216-4.981-2.466-10.8-6.098-11.033-12.522-.465-5.632 2.514-10.567 6.843-13.36 2.095-1.21 4.469-1.722 7.029-1.815z"/></g></svg>